<svg xmlns="http://www.w3.org/2000/svg">

  <symbol id="search" viewBox="0 0 20.03 20">
    <g>
      <path d="M1439.89,63.7l-5.81-5.81a7.944,7.944,0,1,0-1.18,1.178l5.81,5.81a0.417,0.417,0,0,0,.59,0l0.59-.589A0.421,0.421,0,0,0,1439.89,63.7Zm-11.96-4.533a6.25,6.25,0,1,1,6.25-6.25A6.254,6.254,0,0,1,1427.93,59.163Z" transform="translate(-1420 -45)"/>
    </g>
  </symbol>

  <symbol id="bag" viewBox="0 0 16 20">
    <g>
      <path d="M968,989.294l-1.145-12.9a0.55,0.55,0,0,0-.547-0.5h-2.354a3.948,3.948,0,0,0-7.9,0H953.7a0.547,0.547,0,0,0-.547.5l-1.145,12.9c0,0.017,0,.032,0,0.049a2.849,2.849,0,0,0,3,2.663h10a2.849,2.849,0,0,0,3-2.663,0.2,0.2,0,0,0,0-.049h0Zm-7.994-16.188a2.848,2.848,0,0,1,2.844,2.786h-5.688a2.848,2.848,0,0,1,2.844-2.786h0Zm5,17.8h-10a1.76,1.76,0,0,1-1.9-1.534l1.1-12.367h1.847v1.677a0.552,0.552,0,0,0,1.1,0V977h5.692v1.677a0.552,0.552,0,1,0,1.1,0V977H965.8l1.1,12.367A1.763,1.763,0,0,1,965,990.9h0Zm0,0" transform="translate(-952 -972)"/>
    </g>
  </symbol>

  <symbol id="heart-product" viewBox="0 0 23 20">
    <g>
      <path d="M1036.89,972a5.867,5.867,0,0,0-4.82,2.62,9.343,9.343,0,0,0-.57.914,9.343,9.343,0,0,0-.57-0.914,5.848,5.848,0,0,0-9.25-.655,6.763,6.763,0,0,0-1.68,4.558,8.3,8.3,0,0,0,2.35,5.513,51.584,51.584,0,0,0,5.89,5.412c0.89,0.747,1.81,1.519,2.79,2.363l0.03,0.025a0.65,0.65,0,0,0,.44.164,0.694,0.694,0,0,0,.45-0.164l0.02-.025c0.98-.844,1.91-1.616,2.8-2.363a51.391,51.391,0,0,0,5.88-5.412,8.316,8.316,0,0,0,2.36-5.513,6.812,6.812,0,0,0-1.68-4.558A5.885,5.885,0,0,0,1036.89,972Zm-3,16.439c-0.77.643-1.56,1.306-2.39,2.018-0.83-.712-1.62-1.375-2.39-2.018-4.68-3.921-7.77-6.511-7.77-9.916a5.469,5.469,0,0,1,1.35-3.681,4.491,4.491,0,0,1,7.14.545,7.759,7.759,0,0,1,1.03,2.019,0.676,0.676,0,0,0,1.28,0,8.1,8.1,0,0,1,1.03-2.019,4.5,4.5,0,0,1,7.15-.545,5.511,5.511,0,0,1,1.34,3.681C1041.66,981.926,1038.57,984.516,1033.89,988.437Z" transform="translate(-1020 -972)"/>
    </g>
  </symbol>

  <symbol id="shop-grid" viewBox="0 0 15 15">
    <g>
      <path d="M855,613.75h3.75V610H855v3.75ZM860.625,625h3.75v-3.75h-3.75V625ZM855,625h3.75v-3.75H855V625Zm0-5.625h3.75v-3.75H855v3.75Zm5.625,0h3.75v-3.75h-3.75v3.75ZM866.25,610v3.75H870V610h-3.75Zm-5.625,3.75h3.75V610h-3.75v3.75Zm5.625,5.625H870v-3.75h-3.75v3.75Zm0,5.625H870v-3.75h-3.75V625Z" transform="translate(-855 -610)"/>
    </g>
  </symbol>

  <symbol id="shop-list" viewBox="0 0 20 15">
    <g>
      <path d="M885.007,610h4.422v4.172h-4.422V610Zm5.828,0h14.159v4.172H890.835V610Zm-5.828,5.413h4.422v4.172h-4.422v-4.172Zm5.828,0h14.159v4.172H890.835v-4.172Zm-5.828,5.414h4.422V625h-4.422v-4.171Zm5.828,0h14.159V625H890.835v-4.171Z" transform="translate(-885 -610)"/>
    </g>
  </symbol>

  <symbol id="facebook" viewBox="0 0 11 17">
    <g>
      <path d="M 9.59375 9.5625 L 10.085938 6.484375 L 7.027344 6.484375 L 7.027344 4.488281 C 7.027344 3.648438 7.453125 2.828125 8.824219 2.828125 L 10.214844 2.828125 L 10.214844 0.207031 C 10.214844 0.207031 8.953125 0 7.746094 0 C 5.230469 0 3.585938 1.472656 3.585938 4.140625 L 3.585938 6.484375 L 0.785156 6.484375 L 0.785156 9.5625 L 3.585938 9.5625 L 3.585938 17 L 7.027344 17 L 7.027344 9.5625 Z M 9.59375 9.5625 "/>
    </g>
  </symbol>

  <symbol id="twitter" viewBox="0 0 16 16">
    <g>
      <path d="M 14.355469 4.742188 C 14.367188 4.882812 14.367188 5.027344 14.367188 5.167969 C 14.367188 9.503906 11.066406 14.496094 5.035156 14.496094 C 3.175781 14.496094 1.453125 13.960938 0 13.027344 C 0.265625 13.054688 0.519531 13.066406 0.792969 13.066406 C 2.324219 13.066406 3.734375 12.546875 4.863281 11.664062 C 3.421875 11.632812 2.214844 10.691406 1.796875 9.390625 C 2 9.421875 2.203125 9.441406 2.417969 9.441406 C 2.710938 9.441406 3.003906 9.402344 3.277344 9.328125 C 1.777344 9.023438 0.648438 7.707031 0.648438 6.113281 L 0.648438 6.070312 C 1.085938 6.316406 1.59375 6.46875 2.132812 6.488281 C 1.25 5.898438 0.671875 4.894531 0.671875 3.757812 C 0.671875 3.148438 0.832031 2.589844 1.117188 2.101562 C 2.730469 4.089844 5.15625 5.390625 7.878906 5.53125 C 7.828125 5.289062 7.796875 5.035156 7.796875 4.78125 C 7.796875 2.976562 9.257812 1.503906 11.074219 1.503906 C 12.019531 1.503906 12.871094 1.898438 13.472656 2.539062 C 14.214844 2.394531 14.921875 2.121094 15.554688 1.746094 C 15.308594 2.507812 14.792969 3.148438 14.113281 3.554688 C 14.773438 3.480469 15.410156 3.300781 16 3.046875 C 15.554688 3.695312 14.996094 4.273438 14.355469 4.742188 Z M 14.355469 4.742188 "/>
    </g>
  </symbol>

  <symbol id="linkedin" viewBox="0 0 14 16">
    <g>
      <path d="M 3.132812 14 L 0.230469 14 L 0.230469 4.652344 L 3.132812 4.652344 Z M 1.679688 3.378906 C 0.753906 3.378906 0 2.609375 0 1.679688 C 0 0.753906 0.753906 0 1.679688 0 C 2.609375 0 3.363281 0.753906 3.363281 1.679688 C 3.363281 2.609375 2.609375 3.378906 1.679688 3.378906 Z M 13.996094 14 L 11.101562 14 L 11.101562 9.449219 C 11.101562 8.367188 11.078125 6.976562 9.589844 6.976562 C 8.082031 6.976562 7.851562 8.152344 7.851562 9.371094 L 7.851562 14 L 4.953125 14 L 4.953125 4.652344 L 7.734375 4.652344 L 7.734375 5.929688 L 7.777344 5.929688 C 8.164062 5.195312 9.109375 4.417969 10.523438 4.417969 C 13.460938 4.417969 14 6.351562 14 8.867188 L 14 14 Z M 13.996094 14 "/>
    </g>
  </symbol>
  
  <symbol id="google" viewBox="0 0 15 15">
    <g>
      <path d="M 15 7.671875 C 15 11.816406 12.023438 14.765625 7.621094 14.765625 C 3.40625 14.765625 0 11.519531 0 7.5 C 0 3.480469 3.40625 0.234375 7.621094 0.234375 C 9.675781 0.234375 11.402344 0.953125 12.734375 2.136719 L 10.660156 4.039062 C 7.945312 1.539062 2.898438 3.414062 2.898438 7.5 C 2.898438 10.035156 5.023438 12.085938 7.621094 12.085938 C 10.640625 12.085938 11.773438 10.027344 11.949219 8.957031 L 7.621094 8.957031 L 7.621094 6.457031 L 14.878906 6.457031 C 14.949219 6.828125 15 7.1875 15 7.671875 Z M 15 7.671875 "/>
    </g>
  </symbol>

  <symbol id="pinterest" viewBox="0 0 12 16">
    <g>
      <path d="M 6.375 0.203125 C 3.167969 0.203125 0 2.339844 0 5.800781 C 0 8 1.238281 9.25 1.988281 9.25 C 2.296875 9.25 2.476562 8.386719 2.476562 8.144531 C 2.476562 7.851562 1.734375 7.234375 1.734375 6.023438 C 1.734375 3.511719 3.648438 1.730469 6.121094 1.730469 C 8.25 1.730469 9.824219 2.941406 9.824219 5.164062 C 9.824219 6.820312 9.160156 9.933594 7.003906 9.933594 C 6.226562 9.933594 5.558594 9.371094 5.558594 8.566406 C 5.558594 7.382812 6.382812 6.242188 6.382812 5.023438 C 6.382812 2.953125 3.449219 3.328125 3.449219 5.828125 C 3.449219 6.351562 3.515625 6.933594 3.75 7.414062 C 3.320312 9.269531 2.4375 12.035156 2.4375 13.945312 C 2.4375 14.539062 2.523438 15.117188 2.578125 15.710938 C 2.683594 15.828125 2.632812 15.816406 2.792969 15.757812 C 4.367188 13.601562 4.3125 13.179688 5.023438 10.355469 C 5.410156 11.085938 6.402344 11.480469 7.191406 11.480469 C 10.507812 11.480469 12 8.246094 12 5.332031 C 12 2.226562 9.320312 0.203125 6.375 0.203125 Z M 6.375 0.203125 "/>
    </g>
  </symbol>

  <symbol id="star" viewBox="0 0 18 16">
    <g>
      <path d="M 8.101562 0.554688 L 6.0625 4.695312 L 1.496094 5.359375 C 0.679688 5.476562 0.351562 6.488281 0.945312 7.066406 L 4.246094 10.285156 L 3.464844 14.832031 C 3.324219 15.652344 4.191406 16.269531 4.914062 15.882812 L 9 13.738281 L 13.085938 15.882812 C 13.808594 16.265625 14.675781 15.652344 14.535156 14.832031 L 13.753906 10.285156 L 17.054688 7.066406 C 17.648438 6.488281 17.320312 5.476562 16.503906 5.359375 L 11.9375 4.695312 L 9.898438 0.554688 C 9.53125 -0.179688 8.472656 -0.191406 8.101562 0.554688 Z M 8.101562 0.554688 "/>
    </g>
  </symbol>

  <!-- <symbol id="" >
    <g>
    </g>
  </symbol> -->

</svg>
