<svg xmlns="http://www.w3.org/2000/svg">

  <symbol id="search" viewBox="0 0 20.03 20">
    <g>
      <path d="M1439.89,63.7l-5.81-5.81a7.944,7.944,0,1,0-1.18,1.178l5.81,5.81a0.417,0.417,0,0,0,.59,0l0.59-.589A0.421,0.421,0,0,0,1439.89,63.7Zm-11.96-4.533a6.25,6.25,0,1,1,6.25-6.25A6.254,6.254,0,0,1,1427.93,59.163Z" transform="translate(-1420 -45)"/>
    </g>
  </symbol>

  <symbol id="bag" viewBox="0 0 16 20">
    <g>
      <path d="M968,989.294l-1.145-12.9a0.55,0.55,0,0,0-.547-0.5h-2.354a3.948,3.948,0,0,0-7.9,0H953.7a0.547,0.547,0,0,0-.547.5l-1.145,12.9c0,0.017,0,.032,0,0.049a2.849,2.849,0,0,0,3,2.663h10a2.849,2.849,0,0,0,3-2.663,0.2,0.2,0,0,0,0-.049h0Zm-7.994-16.188a2.848,2.848,0,0,1,2.844,2.786h-5.688a2.848,2.848,0,0,1,2.844-2.786h0Zm5,17.8h-10a1.76,1.76,0,0,1-1.9-1.534l1.1-12.367h1.847v1.677a0.552,0.552,0,0,0,1.1,0V977h5.692v1.677a0.552,0.552,0,1,0,1.1,0V977H965.8l1.1,12.367A1.763,1.763,0,0,1,965,990.9h0Zm0,0" transform="translate(-952 -972)"/>
    </g>
  </symbol>

  <symbol id="heart-product" viewBox="0 0 23 20">
    <g>
      <path d="M1036.89,972a5.867,5.867,0,0,0-4.82,2.62,9.343,9.343,0,0,0-.57.914,9.343,9.343,0,0,0-.57-0.914,5.848,5.848,0,0,0-9.25-.655,6.763,6.763,0,0,0-1.68,4.558,8.3,8.3,0,0,0,2.35,5.513,51.584,51.584,0,0,0,5.89,5.412c0.89,0.747,1.81,1.519,2.79,2.363l0.03,0.025a0.65,0.65,0,0,0,.44.164,0.694,0.694,0,0,0,.45-0.164l0.02-.025c0.98-.844,1.91-1.616,2.8-2.363a51.391,51.391,0,0,0,5.88-5.412,8.316,8.316,0,0,0,2.36-5.513,6.812,6.812,0,0,0-1.68-4.558A5.885,5.885,0,0,0,1036.89,972Zm-3,16.439c-0.77.643-1.56,1.306-2.39,2.018-0.83-.712-1.62-1.375-2.39-2.018-4.68-3.921-7.77-6.511-7.77-9.916a5.469,5.469,0,0,1,1.35-3.681,4.491,4.491,0,0,1,7.14.545,7.759,7.759,0,0,1,1.03,2.019,0.676,0.676,0,0,0,1.28,0,8.1,8.1,0,0,1,1.03-2.019,4.5,4.5,0,0,1,7.15-.545,5.511,5.511,0,0,1,1.34,3.681C1041.66,981.926,1038.57,984.516,1033.89,988.437Z" transform="translate(-1020 -972)"/>
    </g>
  </symbol>

  <symbol id="shop-grid" viewBox="0 0 15 15">
    <g>
      <path d="M855,613.75h3.75V610H855v3.75ZM860.625,625h3.75v-3.75h-3.75V625ZM855,625h3.75v-3.75H855V625Zm0-5.625h3.75v-3.75H855v3.75Zm5.625,0h3.75v-3.75h-3.75v3.75ZM866.25,610v3.75H870V610h-3.75Zm-5.625,3.75h3.75V610h-3.75v3.75Zm5.625,5.625H870v-3.75h-3.75v3.75Zm0,5.625H870v-3.75h-3.75V625Z" transform="translate(-855 -610)"/>
    </g>
  </symbol>

  <symbol id="shop-list" viewBox="0 0 20 15">
    <g>
      <path d="M885.007,610h4.422v4.172h-4.422V610Zm5.828,0h14.159v4.172H890.835V610Zm-5.828,5.413h4.422v4.172h-4.422v-4.172Zm5.828,0h14.159v4.172H890.835v-4.172Zm-5.828,5.414h4.422V625h-4.422v-4.171Zm5.828,0h14.159V625H890.835v-4.171Z" transform="translate(-885 -610)"/>
    </g>
  </symbol>


  <!-- <symbol id="" >
    <g>
    </g>
  </symbol> -->

</svg>
