<svg xmlns="http://www.w3.org/2000/svg" width="16" height="20" viewBox="0 0 16 20">
  <defs>
    <style>
      .cls-1 {
        fill: #29282d; 
        fill-rule: evenodd;
      }
    </style>
  </defs>
  <path id="bag" class="cls-1" d="M968,989.294l-1.145-12.9a0.55,0.55,0,0,0-.547-0.5h-2.354a3.948,3.948,0,0,0-7.9,0H953.7a0.547,0.547,0,0,0-.547.5l-1.145,12.9c0,0.017,0,.032,0,0.049a2.849,2.849,0,0,0,3,2.663h10a2.849,2.849,0,0,0,3-2.663,0.2,0.2,0,0,0,0-.049h0Zm-7.994-16.188a2.848,2.848,0,0,1,2.844,2.786h-5.688a2.848,2.848,0,0,1,2.844-2.786h0Zm5,17.8h-10a1.76,1.76,0,0,1-1.9-1.534l1.1-12.367h1.847v1.677a0.552,0.552,0,0,0,1.1,0V977h5.692v1.677a0.552,0.552,0,1,0,1.1,0V977H965.8l1.1,12.367A1.763,1.763,0,0,1,965,990.9h0Zm0,0" transform="translate(-952 -972)"/>
</svg>
