<svg xmlns="http://www.w3.org/2000/svg" width="23" height="20" viewBox="0 0 23 20">
  <defs>
    <style>
      .cls-1 {
        fill: #29282d;
        fill-rule: evenodd;
      }
    </style>
  </defs>
  <path id="love" class="cls-1" d="M1036.89,972a5.867,5.867,0,0,0-4.82,2.62,9.343,9.343,0,0,0-.57.914,9.343,9.343,0,0,0-.57-0.914,5.848,5.848,0,0,0-9.25-.655,6.763,6.763,0,0,0-1.68,4.558,8.3,8.3,0,0,0,2.35,5.513,51.584,51.584,0,0,0,5.89,5.412c0.89,0.747,1.81,1.519,2.79,2.363l0.03,0.025a0.65,0.65,0,0,0,.44.164,0.694,0.694,0,0,0,.45-0.164l0.02-.025c0.98-.844,1.91-1.616,2.8-2.363a51.391,51.391,0,0,0,5.88-5.412,8.316,8.316,0,0,0,2.36-5.513,6.812,6.812,0,0,0-1.68-4.558A5.885,5.885,0,0,0,1036.89,972Zm-3,16.439c-0.77.643-1.56,1.306-2.39,2.018-0.83-.712-1.62-1.375-2.39-2.018-4.68-3.921-7.77-6.511-7.77-9.916a5.469,5.469,0,0,1,1.35-3.681,4.491,4.491,0,0,1,7.14.545,7.759,7.759,0,0,1,1.03,2.019,0.676,0.676,0,0,0,1.28,0,8.1,8.1,0,0,1,1.03-2.019,4.5,4.5,0,0,1,7.15-.545,5.511,5.511,0,0,1,1.34,3.681C1041.66,981.926,1038.57,984.516,1033.89,988.437Z" transform="translate(-1020 -972)"/>
</svg>
